<?xml version="1.0" encoding="utf-8"?>
<!-- Generator: Adobe Illustrator 27.5.0, SVG Export Plug-In . SVG Version: 6.00 Build 0)  -->
<svg version="1.1" id="Layer_1" xmlns="http://www.w3.org/2000/svg"
	xmlns:xlink="http://www.w3.org/1999/xlink" x="0px" y="0px"
	viewBox="0 0 1190.552 907.087" style="enable-background:new 0 0 1190.552 907.087;"
	xml:space="preserve">
<g>
	<g>
		<path d="M64.84,57.159c1.307,0.62,2.407-0.208,2.476-0.964c0,0,2.156,3.351-0.272,6.056c-2.265,2.518-4.089,1.032-4.332,0.807
			c0.222,0.248,1.707,2.071-0.805,4.33c-2.709,2.434-6.058,0.274-6.058,0.274c0.751-0.064,1.584-1.169,0.964-2.476
			c-0.621-1.308,0.619-2.273,0.619-2.273c-2.916,2.227-5.503-2.75-5.158-5.575c0.331-2.77-0.035-4.7-0.05-4.759l-0.003-0.003
			l0.007-0.002l-0.002-0.003l0.003,0.004c0.063,0.011,1.993,0.376,4.767,0.041c2.821-0.341,7.795,2.249,5.573,5.16
			C62.569,57.776,63.528,56.543,64.84,57.159L64.84,57.159z"/>
		<path d="M79.912,91.761c3.161-1.147,1.222-9.81-5.878-17.445c7.63,7.105,16.29,9.047,17.442,5.881
			c1.236-3.396-5.019-5.945-5.019-5.945c9.874,0.466,18.595,4.254,18.595,4.254c13.355,5.946,7.187,14.274,7.187,14.274
			c3.228-8.178-5.797-12.884-5.797-12.884c4.48,3.854,2.938,7.869-0.151,8.33c-3.091,0.469-2.163,2.469-2.391,4.706
			c-0.232,2.235-5.714,0.157-5.714,0.157c3.395,9.415,14.898,7.332,18.519-0.151c3.627-7.488-4.784-14.047-4.784-14.047
			c17.138,2.464,25.935,14.809,24.702,22.692c-1.233,7.862-7.726,11.727-11.969,10.106c-4.235-1.625-3.697-4.479-3.697-4.479
			c7.251,2.933,8.755-8.688,1.348-9.611c-7.413-0.918-12.039,12.039-1.389,17.359c10.654,5.331,23.382-8.558,16.552-23.031
			c-3.78-8.01-12.2-13.183-22.467-16.563c9.46,0.756,16.508-6.95,14.539-12.781c-2.38-6.999-9.151-6.366-10.421-2.781
			c-1.275,3.596,2.434,4.748,2.434,4.748s4.511,0.003,0.058,5.382c-3.438,4.151-9.045,4.213-11.428,4.018
			c-7.03-1.863-14.655-3.027-22.107-3.783c-17.024-1.718-28.722-10.979-32.276-14.13c-0.369-0.369-0.739-0.723-1.125-1.092
			c0,0,0.176,0.176,0.475,0.485c-0.315-0.292-0.491-0.469-0.491-0.469c0.372,0.383,0.728,0.751,1.091,1.125
			c3.153,3.554,12.41,15.255,14.131,32.276c0.756,7.452,1.919,15.077,3.783,22.107c0.195,2.382,0.134,7.99-4.017,11.428
			c-5.385,4.458-5.382-0.059-5.382-0.059s-1.152-3.708-4.751-2.431c-3.585,1.269-4.221,8.043,2.782,10.421
			c5.828,1.973,13.539-5.081,12.786-14.544c3.385,10.264,8.552,18.689,16.562,22.47c14.474,6.83,28.365-5.9,23.037-16.558
			c-5.323-10.646-18.291-6.01-17.365,1.395c0.929,7.401,12.546,5.901,9.617-1.354c0,0,2.851-0.535,4.472,3.703
			c1.616,4.248-2.24,10.732-10.105,11.968c-7.882,1.231-20.23-7.563-22.698-24.696c0,0,6.564,8.406,14.05,4.782
			c7.485-3.624,9.572-15.13,0.159-18.528c0,0,2.074,5.488-0.162,5.72c-2.238,0.229-4.241-0.696-4.704,2.389
			c-0.46,3.088-4.478,4.634-8.339,0.159c0,0,4.707,9.024,12.89,5.791c0,0-8.328,6.169-14.279-7.181c0,0-3.781-8.73-4.247-18.603
			C73.966,86.742,76.519,92.993,79.912,91.761L79.912,91.761z M62.776,63.058c15.88,14.987,22.986,16.213,22.986,16.213
			c-3.465,0.284-12.161-5.733-13.289-6.526c-0.036-0.036-0.069-0.069-0.105-0.106c0,0,0.016,0.028,0.041,0.054
			c-0.037-0.014-0.059-0.036-0.059-0.036c0.036,0.036,0.07,0.069,0.106,0.105c0.787,1.133,6.811,9.823,6.531,13.283
			C78.988,86.044,77.764,78.938,62.776,63.058L62.776,63.058z"/>
		<path d="M147.816,128.368c-6.196,4.197-16.781,0.27-21.863-2.057l-0.021-0.021c-0.003,0.009,0,0.012,0.003,0.015
			c-0.003-0.003-0.006-0.006-0.015-0.003l0.021,0.022c2.326,5.081,6.254,15.666,2.056,21.862
			c-6.523,9.631-12.583,0.622-17.393,7.769c0,0-2.02,5.272,3.265,6.984c2.554,0.832,10.085,1.714,15.839-3.883
			c4.704-4.576,9.343-12.438,3.702-25.276c12.837,5.643,20.7,1.002,25.279-3.704c5.596-5.754,4.709-13.28,3.886-15.842
			c-1.711-5.285-6.99-3.259-6.99-3.259C148.438,115.785,157.451,121.842,147.816,128.368L147.816,128.368z M132.647,133.005
			l-0.016-0.015c-0.002,0.008,0,0.012,0.003,0.015c-0.003-0.003-0.006-0.007-0.015-0.003l0.016,0.015
			c1.538,4.857,3.485,14.498-2.157,21.697c0,0,6.33-12.17-1.069-24.935c12.765,7.398,24.927,1.075,24.927,1.075
			C147.144,136.491,137.504,134.543,132.647,133.005L132.647,133.005z"/>
		<g>
			<path d="M175.774,50.001c-3.319-7.979,0.885-13.517,0.885-13.517c-3.207,7.021,2.158,19.419,2.158,19.419
				s-0.746-4.722,3.899-9.688c4.653-4.979,1.448-9.909-1.136-12.703c-2.587-2.796,1.026-5.23,1.026-5.23
				c-12.023,1.866-11.877,15.937-8.244,21.82c3.634,5.883,2.601,11.351,2.601,11.351S179.09,57.979,175.774,50.001L175.774,50.001z"
				/>
			<path d="M146.523,98.102c-0.531-19.758-9.622-13.231-11.817-20.513c-2.197-7.272-6.066-3.104-6.066-3.104
				s4.485-10.438,18.494-8.105c14.01,2.332,19.72,23.138,2.839,41.546c0,0,14.429-17.875,5.301-33.406
				c0,0,8.349,15.854-9.539,38.112c0,0,16.943-8.632,20.097-29.334c3.155-20.693-4.374-22.827,3.601-30.84
				c0,0-0.667,1.53,1.962,2.797c2.623,1.27,5.514,4.796,4.088,11.55c0,0-0.301-6.11-4.186-7.857c0,0,4.508,3.612,3.057,12.571
				c0,0,5.861-25.044,24.686-28.374c18.836-3.323,25.04,7.938,25.107,14.605c0.067,6.668-1.736,8.928,2.418,10.86
				c0,0-11.795,3.761-14.115-3.681c-2.323-7.441-0.102-16.588-9.523-16.923c0,0,7.962-2.841,10.847,8.827
				c0,0,0.736-5.07-3.104-8.146c-3.846-3.075-16.324-5.835-26.855,7.642c-7.998,10.222-10.745,24.025-10.745,24.025
				s4.456-1.123,6.749-9.817c2.301-8.692,6.024-13.92,13.101-12.742c7.077,1.178,6.443-2.615,6.443-2.615s4.426,3.163,1.447,10.422
				c-2.979,7.26-15.462,6.629-20.504,10.778c0,0,3.12-5.172,12.521-6.756c0,0-8.194-2.677-14.847,8.489
				c0,0,11.058-6.826,22.924,0.078c11.868,6.908,11.64,23.741,0.74,27.484c-10.904,3.74-22.617-7.286-13.335-16.143
				c0,0-3.158,5.454,0.315,5.963c3.477,0.5,2.851-5.354,8.25-3.83c5.4,1.522,7.198-4.725,3.646-8.789c0,0,5.459,3.16,1.754,10.312
				c-3.704,7.152-12.448,3.439-12.448,3.439s9.046,5.841,13.656-3.116c4.796-9.286-5.453-16.918-15.499-16.015
				c-10.045,0.903-18.434,9.75-24.299,20.583c-5.865,10.832-19.157,22.818-38.151,25.229
				C125.533,123.31,147.045,117.854,146.523,98.102L146.523,98.102z"/>
		</g>
		<g>
			<path d="M49.751,176.024c-7.98-3.319-13.517,0.885-13.517,0.885c7.02-3.207,19.419,2.158,19.419,2.158s-4.721-0.746-9.687,3.899
				c-4.98,4.653-9.909,1.448-12.704-1.137c-2.795-2.586-5.23,1.026-5.23,1.026c1.867-12.023,15.936-11.877,21.82-8.244
				c5.883,3.635,11.351,2.602,11.351,2.602S57.73,179.34,49.751,176.024L49.751,176.024z"/>
			<path d="M97.852,146.772c-19.758-0.531-13.231-9.621-20.513-11.817c-7.273-2.197-3.104-6.066-3.104-6.066
				s-10.439,4.485-8.105,18.495c2.332,14.01,23.138,19.719,41.546,2.838c0,0-17.876,14.429-33.406,5.302
				c0,0,15.853,8.348,38.112-9.539c0,0-8.632,16.942-29.335,20.097c-20.693,3.155-22.826-4.373-30.839,3.602
				c0,0,1.53-0.667,2.797,1.962c1.27,2.623,4.796,5.514,11.55,4.088c0,0-6.11-0.301-7.857-4.187c0,0,3.612,4.508,12.572,3.057
				c0,0-25.044,5.861-28.375,24.687c-3.323,18.837,7.938,25.039,14.606,25.107c6.668,0.067,8.927-1.736,10.86,2.418
				c0,0,3.761-11.795-3.68-14.115c-7.442-2.322-16.588-0.103-16.923-9.523c0,0-2.841,7.962,8.827,10.847c0,0-5.07,0.736-8.147-3.105
				c-3.075-3.846-5.834-16.323,7.642-26.854c10.221-7.998,24.025-10.745,24.025-10.745s-1.123,4.456-9.817,6.749
				c-8.692,2.301-13.92,6.023-12.743,13.102c1.178,7.076-2.615,6.442-2.615,6.442s3.163,4.426,10.422,1.448
				c7.259-2.98,6.629-15.463,10.778-20.505c0,0-5.171,3.119-6.755,12.52c0,0-2.677-8.194,8.489-14.848
				c0,0-6.826,11.058,0.078,22.924c6.908,11.868,23.742,11.64,27.484,0.74c3.741-10.904-7.286-22.617-16.144-13.335
				c0,0,5.455-3.158,5.963,0.315c0.5,3.477-5.355,2.851-3.831,8.25c1.523,5.4-4.724,7.198-8.789,3.645c0,0,3.16,5.459,10.312,1.755
				c7.152-3.705,3.439-12.448,3.439-12.448s5.841,9.046-3.116,13.656c-9.287,4.797-16.919-5.453-16.015-15.498
				c0.904-10.045,9.751-18.435,20.584-24.299c10.832-5.865,22.818-19.157,25.229-38.151
				C123.059,125.783,117.603,147.296,97.852,146.772L97.852,146.772z"/>
		</g>
	</g>
	<g>
		<path d="M64.84,849.794c1.307-0.619,2.407,0.209,2.476,0.965c0,0,2.156-3.352-0.272-6.057c-2.265-2.517-4.089-1.031-4.332-0.807
			c0.222-0.247,1.707-2.07-0.805-4.329c-2.709-2.434-6.058-0.274-6.058-0.274c0.751,0.064,1.584,1.169,0.964,2.476
			c-0.621,1.308,0.619,2.273,0.619,2.273c-2.916-2.228-5.503,2.749-5.158,5.575c0.331,2.769-0.035,4.699-0.05,4.758l-0.003,0.004
			l0.007,0.002l-0.002,0.002l0.003-0.003c0.063-0.011,1.993-0.376,4.767-0.041c2.821,0.341,7.795-2.249,5.573-5.161
			C62.569,849.177,63.528,850.411,64.84,849.794L64.84,849.794z"/>
		<path d="M79.912,815.193c-3.393-1.233-5.945,5.019-5.945,5.019c0.466-9.873,4.247-18.603,4.247-18.603
			c5.951-13.351,14.279-7.181,14.279-7.181c-8.183-3.234-12.89,5.791-12.89,5.791c3.861-4.475,7.879-2.93,8.339,0.158
			c0.463,3.086,2.466,2.16,4.704,2.39c2.235,0.232,0.162,5.72,0.162,5.72c9.414-3.398,7.326-14.904-0.159-18.529
			c-7.486-3.623-14.05,4.783-14.05,4.783c2.468-17.133,14.816-25.928,22.698-24.697c7.865,1.236,11.721,7.721,10.105,11.969
			c-1.621,4.238-4.472,3.703-4.472,3.703c2.93-7.255-8.688-8.756-9.617-1.354c-0.926,7.404,12.041,12.041,17.365,1.394
			c5.329-10.658-8.563-23.388-23.037-16.559c-8.01,3.781-13.177,12.207-16.562,22.471c0.753-9.463-6.958-16.517-12.786-14.545
			c-7.003,2.379-6.367,9.152-2.782,10.422c3.599,1.277,4.751-2.431,4.751-2.431s-0.003-4.517,5.382-0.06
			c4.151,3.438,4.212,9.047,4.017,11.429c-1.864,7.03-3.027,14.655-3.783,22.107c-1.721,17.021-10.978,28.722-14.131,32.276
			c-0.363,0.374-0.719,0.742-1.091,1.125c0,0,0.176-0.177,0.491-0.469c-0.299,0.309-0.475,0.484-0.475,0.484
			c0.385-0.368,0.756-0.723,1.125-1.091c3.554-3.151,15.252-12.412,32.276-14.13c7.453-0.756,15.078-1.92,22.107-3.783
			c2.383-0.195,7.99-0.135,11.428,4.018c4.453,5.379-0.058,5.381-0.058,5.381s-3.708,1.152-2.434,4.748
			c1.269,3.586,8.041,4.219,10.421-2.781c1.97-5.83-5.078-13.537-14.539-12.78c10.267-3.382,18.687-8.554,22.467-16.563
			c6.83-14.475-5.898-28.362-16.552-23.031c-10.65,5.32-6.023,18.277,1.389,17.359c7.407-0.924,5.903-12.544-1.348-9.611
			c0,0-0.538-2.854,3.697-4.479c4.243-1.621,10.735,2.244,11.969,10.106c1.233,7.885-7.563,20.229-24.702,22.693
			c0,0,8.411-6.559,4.784-14.047c-3.621-7.483-15.125-9.566-18.519-0.151c0,0,5.482-2.078,5.714,0.157
			c0.228,2.236-0.701,4.237,2.391,4.705c3.088,0.461,4.631,4.477,0.151,8.331c0,0,9.025-4.706,5.797-12.884
			c0,0,6.168,8.328-7.187,14.273c0,0-8.721,3.789-18.595,4.255c0,0,6.255-2.55,5.019-5.945c-1.151-3.167-9.812-1.226-17.442,5.881
			C81.133,825.003,83.072,816.341,79.912,815.193L79.912,815.193z M62.776,843.896c14.988-15.879,16.212-22.985,16.212-22.985
			c0.279,3.46-5.745,12.149-6.531,13.282c-0.036,0.037-0.07,0.07-0.106,0.105c0,0,0.022-0.021,0.059-0.035
			c-0.025,0.025-0.041,0.053-0.041,0.053c0.036-0.036,0.069-0.069,0.105-0.106c1.127-0.793,9.824-6.81,13.289-6.526
			C85.762,827.684,78.656,828.909,62.776,843.896L62.776,843.896z"/>
		<path d="M147.816,778.586c9.634,6.526,0.621,12.583,7.768,17.393c0,0,5.279,2.026,6.99-3.259
			c0.824-2.563,1.711-10.088-3.886-15.842c-4.579-4.707-12.441-9.347-25.279-3.704c5.642-12.838,1.002-20.7-3.702-25.276
			c-5.754-5.597-13.286-4.715-15.839-3.883c-5.284,1.711-3.265,6.984-3.265,6.984c4.81,7.146,10.87-1.862,17.393,7.768
			c4.198,6.197,0.27,16.781-2.056,21.863l-0.021,0.021c0.009,0.003,0.012,0,0.015-0.004c-0.003,0.004-0.006,0.007-0.003,0.016
			l0.021-0.021C131.035,778.315,141.62,774.388,147.816,778.586L147.816,778.586z M132.647,773.948
			c4.857-1.537,14.497-3.485,21.69,2.15c0,0-12.163-6.322-24.927,1.076c7.398-12.766,1.069-24.935,1.069-24.935
			c5.642,7.199,3.695,16.839,2.157,21.696l-0.016,0.016c0.009,0.004,0.012,0,0.015-0.003c-0.003,0.003-0.006,0.007-0.003,0.015
			L132.647,773.948L132.647,773.948z"/>
		<g>
			<path d="M175.774,856.952c-3.319,7.981,0.885,13.518,0.885,13.518c-3.207-7.021,2.158-19.419,2.158-19.419
				s-0.746,4.722,3.899,9.687c4.653,4.98,1.448,9.91-1.136,12.704c-2.587,2.796,1.026,5.23,1.026,5.23
				c-12.023-1.866-11.877-15.937-8.244-21.82c3.634-5.883,2.601-11.351,2.601-11.351S179.09,848.974,175.774,856.952
				L175.774,856.952z"/>
			<path d="M146.523,808.852c-0.531,19.758-9.622,13.231-11.817,20.512c-2.197,7.273-6.066,3.104-6.066,3.104
				s4.485,10.439,18.494,8.106c14.01-2.333,19.72-23.138,2.839-41.546c0,0,14.429,17.875,5.301,33.406
				c0,0,8.349-15.854-9.539-38.113c0,0,16.943,8.633,20.097,29.335c3.155,20.693-4.374,22.827,3.601,30.839
				c0,0-0.667-1.529,1.962-2.797c2.623-1.269,5.514-4.795,4.088-11.549c0,0-0.301,6.109-4.186,7.856c0,0,4.508-3.612,3.057-12.571
				c0,0,5.861,25.044,24.686,28.374c18.836,3.323,25.04-7.938,25.107-14.607c0.067-6.667-1.736-8.927,2.418-10.859
				c0,0-11.795-3.762-14.115,3.68c-2.323,7.442-0.102,16.589-9.523,16.924c0,0,7.962,2.84,10.847-8.828c0,0,0.736,5.07-3.104,8.148
				c-3.846,3.075-16.324,5.835-26.855-7.642c-7.998-10.222-10.745-24.025-10.745-24.025s4.456,1.123,6.749,9.816
				c2.301,8.692,6.024,13.921,13.101,12.743c7.077-1.179,6.443,2.614,6.443,2.614s4.426-3.162,1.447-10.422
				c-2.979-7.259-15.462-6.629-20.504-10.777c0,0,3.12,5.172,12.521,6.756c0,0-8.194,2.677-14.847-8.489
				c0,0,11.058,6.826,22.924-0.078c11.868-6.908,11.64-23.741,0.74-27.484c-10.904-3.741-22.617,7.286-13.335,16.144
				c0,0-3.158-5.455,0.315-5.963c3.477-0.5,2.851,5.354,8.25,3.83c5.4-1.523,7.198,4.725,3.646,8.789c0,0,5.459-3.16,1.754-10.313
				c-3.704-7.151-12.448-3.438-12.448-3.438s9.046-5.841,13.656,3.116c4.796,9.286-5.453,16.918-15.499,16.015
				c-10.045-0.903-18.434-9.751-24.299-20.583c-5.865-10.832-19.157-22.818-38.151-25.23
				C125.533,783.644,147.045,789.101,146.523,808.852L146.523,808.852z"/>
		</g>
		<g>
			<path d="M49.751,730.93c-7.98,3.319-13.517-0.886-13.517-0.886c7.02,3.208,19.419-2.158,19.419-2.158s-4.721,0.746-9.687-3.898
				c-4.98-4.653-9.909-1.448-12.704,1.137c-2.795,2.586-5.23-1.026-5.23-1.026c1.867,12.023,15.936,11.877,21.82,8.243
				c5.883-3.634,11.351-2.602,11.351-2.602S57.73,727.614,49.751,730.93L49.751,730.93z"/>
			<path d="M97.852,760.181c-19.758,0.531-13.231,9.622-20.513,11.818c-7.273,2.197-3.104,6.066-3.104,6.066
				s-10.439-4.486-8.105-18.495c2.332-14.01,23.138-19.72,41.546-2.839c0,0-17.876-14.428-33.406-5.301
				c0,0,15.853-8.348,38.112,9.539c0,0-8.632-16.943-29.335-20.098c-20.693-3.154-22.826,4.374-30.839-3.601
				c0,0,1.53,0.667,2.797-1.962c1.27-2.623,4.796-5.514,11.55-4.088c0,0-6.11,0.301-7.857,4.187c0,0,3.612-4.508,12.572-3.058
				c0,0-25.044-5.86-28.375-24.686c-3.323-18.837,7.938-25.039,14.606-25.107c6.668-0.067,8.927,1.736,10.86-2.418
				c0,0,3.761,11.795-3.68,14.115c-7.442,2.322-16.588,0.102-16.923,9.522c0,0-2.841-7.962,8.827-10.847c0,0-5.07-0.736-8.147,3.104
				c-3.075,3.846-5.834,16.324,7.642,26.855c10.221,7.998,24.025,10.744,24.025,10.744s-1.123-4.455-9.817-6.748
				c-8.692-2.301-13.92-6.023-12.743-13.102c1.178-7.076-2.615-6.443-2.615-6.443s3.163-4.426,10.422-1.447
				c7.259,2.979,6.629,15.463,10.778,20.505c0,0-5.171-3.12-6.755-12.52c0,0-2.677,8.193,8.489,14.848
				c0,0-6.826-11.059,0.078-22.924c6.908-11.868,23.742-11.641,27.484-0.74c3.741,10.904-7.286,22.617-16.144,13.335
				c0,0,5.455,3.158,5.963-0.315c0.5-3.477-5.355-2.852-3.831-8.25c1.523-5.4-4.724-7.199-8.789-3.646c0,0,3.16-5.459,10.312-1.754
				c7.152,3.705,3.439,12.447,3.439,12.447s5.841-9.045-3.116-13.656c-9.287-4.796-16.919,5.453-16.015,15.499
				c0.904,10.045,9.751,18.435,20.584,24.299c10.832,5.864,22.818,19.157,25.229,38.151
				C123.059,781.171,117.603,759.658,97.852,760.181L97.852,760.181z"/>
		</g>
	</g>
	<g>
		<path d="M1125.084,57.159c-1.307,0.62-2.406-0.208-2.477-0.964c0,0-2.156,3.351,0.273,6.056c2.266,2.518,4.088,1.032,4.332,0.807
			c-0.223,0.248-1.707,2.071,0.805,4.33c2.709,2.434,6.059,0.274,6.059,0.274c-0.752-0.064-1.584-1.169-0.965-2.476
			c0.621-1.308-0.619-2.273-0.619-2.273c2.916,2.227,5.504-2.75,5.158-5.575c-0.332-2.77,0.035-4.7,0.049-4.759l0.004-0.003
			l-0.006-0.002l0.002-0.003l-0.004,0.004c-0.063,0.011-1.992,0.376-4.768,0.041c-2.82-0.341-7.795,2.249-5.572,5.16
			C1127.355,57.776,1126.396,56.543,1125.084,57.159L1125.084,57.159z"/>
		<path d="M1110.014,91.761c3.393,1.232,5.945-5.018,5.945-5.018c-0.467,9.873-4.248,18.603-4.248,18.603
			c-5.949,13.35-14.277,7.181-14.277,7.181c8.182,3.233,12.889-5.791,12.889-5.791c-3.861,4.475-7.879,2.929-8.338-0.159
			c-0.465-3.085-2.467-2.159-4.705-2.389c-2.234-0.231-0.162-5.72-0.162-5.72c-9.412,3.398-7.326,14.904,0.16,18.528
			c7.484,3.624,14.049-4.782,14.049-4.782c-2.469,17.133-14.816,25.928-22.697,24.696c-7.865-1.235-11.721-7.72-10.105-11.968
			c1.621-4.238,4.473-3.703,4.473-3.703c-2.93,7.255,8.688,8.755,9.615,1.354c0.928-7.404-12.041-12.041-17.363-1.395
			c-5.33,10.657,8.563,23.388,23.035,16.558c8.01-3.78,13.178-12.206,16.563-22.47c-0.754,9.463,6.957,16.517,12.785,14.544
			c7.004-2.378,6.367-9.151,2.781-10.421c-3.598-1.277-4.75,2.431-4.75,2.431s0.002,4.517-5.383,0.059
			c-4.15-3.438-4.213-9.046-4.018-11.428c1.865-7.03,3.027-14.655,3.783-22.107c1.723-17.021,10.979-28.723,14.131-32.276
			c0.363-0.374,0.721-0.742,1.092-1.125c0,0-0.176,0.177-0.492,0.469c0.299-0.31,0.475-0.485,0.475-0.485
			c-0.385,0.369-0.756,0.723-1.123,1.092c-3.555,3.151-15.254,12.412-32.277,14.13c-7.453,0.756-15.078,1.92-22.107,3.783
			c-2.383,0.195-7.99,0.134-11.428-4.018c-4.453-5.379,0.058-5.382,0.058-5.382s3.707-1.152,2.434-4.748
			c-1.27-3.585-8.041-4.218-10.422,2.781c-1.969,5.831,5.078,13.537,14.539,12.781c-10.268,3.381-18.688,8.554-22.467,16.563
			c-6.83,14.474,5.898,28.362,16.553,23.031c10.648-5.32,6.023-18.277-1.391-17.359c-7.406,0.924-5.902,12.544,1.348,9.611
			c0,0,0.539,2.854-3.695,4.479c-4.244,1.62-10.736-2.244-11.969-10.106c-1.234-7.884,7.563-20.229,24.701-22.692
			c0,0-8.412,6.559-4.785,14.047c3.621,7.483,15.125,9.566,18.52,0.151c0,0-5.482,2.078-5.713-0.157
			c-0.229-2.237,0.699-4.237-2.391-4.706c-3.09-0.461-4.631-4.476-0.152-8.33c0,0-9.023,4.706-5.797,12.884
			c0,0-6.168-8.328,7.188-14.274c0,0,8.721-3.788,18.596-4.254c0,0-6.256,2.55-5.02,5.945c1.15,3.166,9.811,1.225,17.441-5.881
			C1108.791,81.951,1106.852,90.613,1110.014,91.761L1110.014,91.761z M1127.148,63.058c-14.988,15.88-16.213,22.986-16.213,22.986
			c-0.279-3.46,5.746-12.15,6.531-13.283c0.037-0.036,0.07-0.069,0.107-0.105c0,0-0.023,0.022-0.059,0.036
			c0.025-0.025,0.041-0.054,0.041-0.054c-0.037,0.037-0.07,0.07-0.105,0.106c-1.127,0.793-9.824,6.811-13.289,6.526
			C1104.162,79.271,1111.268,78.045,1127.148,63.058L1127.148,63.058z"/>
		<path d="M1042.107,128.368c-9.633-6.526-0.621-12.583-7.768-17.393c0,0-5.279-2.026-6.99,3.259
			c-0.824,2.562-1.711,10.088,3.887,15.842c4.578,4.706,12.441,9.347,25.277,3.704c-5.641,12.838-1.002,20.7,3.703,25.276
			c5.754,5.597,13.285,4.715,15.838,3.883c5.285-1.712,3.266-6.984,3.266-6.984c-4.811-7.146-10.871,1.862-17.393-7.769
			c-4.199-6.196-0.27-16.781,2.055-21.862l0.021-0.022c-0.008-0.003-0.012,0-0.016,0.003c0.004-0.003,0.008-0.006,0.004-0.015
			l-0.021,0.021C1058.889,128.638,1048.305,132.565,1042.107,128.368L1042.107,128.368z M1057.277,133.005
			c-4.857,1.538-14.496,3.486-21.689-2.15c0,0,12.162,6.323,24.928-1.075c-7.398,12.765-1.068,24.935-1.068,24.935
			c-5.643-7.199-3.695-16.84-2.158-21.697l0.016-0.015c-0.008-0.004-0.012,0-0.014,0.003c0.002-0.003,0.006-0.007,0.002-0.015
			L1057.277,133.005L1057.277,133.005z"/>
		<g>
			<path d="M1014.15,50.001c3.32-7.979-0.885-13.517-0.885-13.517c3.207,7.021-2.158,19.419-2.158,19.419s0.746-4.722-3.898-9.688
				c-4.654-4.979-1.449-9.909,1.135-12.703c2.588-2.796-1.025-5.23-1.025-5.23c12.023,1.866,11.877,15.937,8.244,21.82
				c-3.635,5.883-2.602,11.351-2.602,11.351S1010.834,57.979,1014.15,50.001L1014.15,50.001z"/>
			<path d="M1043.402,98.102c0.531-19.758,9.621-13.231,11.816-20.513c2.197-7.272,6.066-3.104,6.066-3.104
				s-4.484-10.438-18.494-8.105c-14.01,2.332-19.719,23.138-2.838,41.546c0,0-14.43-17.875-5.301-33.406
				c0,0-8.35,15.854,9.539,38.112c0,0-16.943-8.632-20.098-29.334c-3.156-20.693,4.373-22.827-3.602-30.84
				c0,0,0.668,1.53-1.961,2.797c-2.623,1.27-5.514,4.796-4.088,11.55c0,0,0.301-6.11,4.186-7.857c0,0-4.508,3.612-3.057,12.571
				c0,0-5.861-25.044-24.686-28.374c-18.838-3.323-25.041,7.938-25.107,14.605c-0.068,6.668,1.736,8.928-2.418,10.86
				c0,0,11.795,3.761,14.113-3.681c2.324-7.441,0.103-16.588,9.523-16.923c0,0-7.961-2.841-10.846,8.827c0,0-0.736-5.07,3.104-8.146
				c3.846-3.075,16.324-5.835,26.855,7.642c7.996,10.222,10.744,24.025,10.744,24.025s-4.457-1.123-6.748-9.817
				c-2.303-8.692-6.025-13.92-13.102-12.742c-7.078,1.178-6.443-2.615-6.443-2.615s-4.426,3.163-1.447,10.422
				c2.979,7.26,15.461,6.629,20.504,10.778c0,0-3.119-5.172-12.519-6.756c0,0,8.193-2.677,14.846,8.489
				c0,0-11.057-6.826-22.924,0.078c-11.867,6.908-11.639,23.741-0.738,27.484c10.904,3.74,22.617-7.286,13.334-16.143
				c0,0,3.158,5.454-0.314,5.963c-3.479,0.5-2.852-5.354-8.252-3.83c-5.398,1.522-7.197-4.725-3.645-8.789
				c0,0-5.459,3.16-1.754,10.312c3.703,7.152,12.447,3.439,12.447,3.439s-9.047,5.841-13.656-3.116
				c-4.797-9.286,5.453-16.918,15.498-16.015c10.045,0.903,18.434,9.75,24.299,20.583c5.865,10.832,19.158,22.818,38.152,25.229
				C1064.393,123.31,1042.879,117.854,1043.402,98.102L1043.402,98.102z"/>
		</g>
		<g>
			<path d="M1140.174,176.024c7.98-3.319,13.518,0.885,13.518,0.885c-7.021-3.207-19.42,2.158-19.42,2.158s4.721-0.746,9.688,3.899
				c4.981,4.653,9.908,1.448,12.703-1.137c2.795-2.586,5.23,1.026,5.23,1.026c-1.867-12.023-15.936-11.877-21.82-8.244
				c-5.883,3.635-11.35,2.602-11.35,2.602S1132.195,179.34,1140.174,176.024L1140.174,176.024z"/>
			<path d="M1092.072,146.772c19.758-0.531,13.232-9.621,20.514-11.817c7.273-2.197,3.104-6.066,3.104-6.066
				s10.439,4.485,8.105,18.495c-2.332,14.01-23.137,19.719-41.547,2.838c0,0,17.877,14.429,33.406,5.302
				c0,0-15.852,8.348-38.111-9.539c0,0,8.631,16.942,29.334,20.097c20.693,3.155,22.826-4.373,30.84,3.602
				c0,0-1.531-0.667-2.797,1.962c-1.27,2.623-4.797,5.514-11.551,4.088c0,0,6.111-0.301,7.857-4.187c0,0-3.611,4.508-12.572,3.057
				c0,0,25.045,5.861,28.375,24.687c3.322,18.837-7.938,25.039-14.605,25.107c-6.668,0.067-8.928-1.736-10.859,2.418
				c0,0-3.762-11.795,3.68-14.115c7.441-2.322,16.588-0.103,16.922-9.523c0,0,2.842,7.962-8.826,10.847c0,0,5.07,0.736,8.146-3.105
				c3.074-3.846,5.834-16.323-7.643-26.854c-10.221-7.998-24.023-10.745-24.023-10.745s1.123,4.456,9.816,6.749
				c8.691,2.301,13.92,6.023,12.742,13.102c-1.178,7.076,2.615,6.442,2.615,6.442s-3.162,4.426-10.422,1.448
				c-7.26-2.98-6.629-15.463-10.777-20.505c0,0,5.17,3.119,6.754,12.52c0,0,2.678-8.194-8.488-14.848c0,0,6.826,11.058-0.078,22.924
				c-6.908,11.868-23.742,11.64-27.484,0.74c-3.74-10.904,7.285-22.617,16.145-13.335c0,0-5.455-3.158-5.965,0.315
				c-0.5,3.477,5.355,2.851,3.832,8.25c-1.523,5.4,4.725,7.198,8.789,3.645c0,0-3.16,5.459-10.313,1.755
				c-7.152-3.705-3.439-12.448-3.439-12.448s-5.842,9.046,3.115,13.656c9.287,4.797,16.92-5.453,16.016-15.498
				c-0.904-10.045-9.75-18.435-20.584-24.299c-10.832-5.865-22.818-19.157-25.229-38.151
				C1066.865,125.783,1072.322,147.296,1092.072,146.772L1092.072,146.772z"/>
		</g>
	</g>
	<g>
		<path d="M1125.084,849.794c-1.307-0.619-2.406,0.209-2.477,0.965c0,0-2.156-3.352,0.273-6.057
			c2.266-2.517,4.088-1.031,4.332-0.807c-0.223-0.247-1.707-2.07,0.805-4.329c2.709-2.434,6.059-0.274,6.059-0.274
			c-0.752,0.064-1.584,1.169-0.965,2.476c0.621,1.308-0.619,2.273-0.619,2.273c2.916-2.228,5.504,2.749,5.158,5.575
			c-0.332,2.769,0.035,4.699,0.049,4.758l0.004,0.004l-0.006,0.002l0.002,0.002l-0.004-0.003c-0.063-0.011-1.992-0.376-4.768-0.041
			c-2.82,0.341-7.795-2.249-5.572-5.161C1127.355,849.177,1126.396,850.411,1125.084,849.794L1125.084,849.794z"/>
		<path d="M1110.014,815.193c-3.162,1.148-1.223,9.81,5.877,17.445c-7.631-7.106-16.291-9.048-17.441-5.881
			c-1.236,3.396,5.02,5.945,5.02,5.945c-9.875-0.466-18.596-4.255-18.596-4.255c-13.355-5.945-7.188-14.273-7.188-14.273
			c-3.227,8.178,5.797,12.884,5.797,12.884c-4.479-3.854-2.938-7.87,0.152-8.331c3.09-0.468,2.162-2.469,2.391-4.705
			c0.23-2.235,5.713-0.157,5.713-0.157c-3.395-9.415-14.898-7.332-18.52,0.151c-3.627,7.488,4.785,14.047,4.785,14.047
			c-17.139-2.464-25.936-14.809-24.701-22.693c1.232-7.861,7.725-11.727,11.969-10.106c4.234,1.625,3.695,4.479,3.695,4.479
			c-7.25-2.933-8.754,8.688-1.348,9.611c7.414,0.918,12.039-12.039,1.391-17.359c-10.654-5.331-23.383,8.557-16.553,23.031
			c3.779,8.01,12.199,13.182,22.467,16.563c-9.461-0.757-16.508,6.95-14.539,12.78c2.381,7,9.152,6.367,10.422,2.781
			c1.273-3.596-2.434-4.748-2.434-4.748s-4.512-0.002-0.058-5.381c3.438-4.152,9.045-4.213,11.428-4.018
			c7.029,1.863,14.654,3.027,22.107,3.783c17.023,1.718,28.723,10.979,32.277,14.13c0.367,0.368,0.738,0.723,1.123,1.091
			c0,0-0.176-0.176-0.475-0.484c0.316,0.292,0.492,0.469,0.492,0.469c-0.371-0.383-0.729-0.751-1.092-1.125
			c-3.152-3.555-12.408-15.256-14.131-32.276c-0.756-7.452-1.918-15.077-3.783-22.107c-0.195-2.382-0.133-7.991,4.018-11.429
			c5.385-4.457,5.383,0.06,5.383,0.06s1.152,3.708,4.75,2.431c3.586-1.27,4.223-8.043-2.781-10.422
			c-5.828-1.972-13.539,5.082-12.785,14.545c-3.385-10.264-8.553-18.689-16.563-22.471c-14.473-6.829-28.365,5.9-23.035,16.559
			c5.322,10.647,18.291,6.01,17.363-1.394c-0.928-7.402-12.545-5.901-9.615,1.354c0,0-2.852,0.535-4.473-3.703
			c-1.615-4.248,2.24-10.732,10.105-11.969c7.881-1.23,20.229,7.565,22.697,24.697c0,0-6.564-8.406-14.049-4.783
			c-7.486,3.625-9.572,15.131-0.16,18.529c0,0-2.072-5.488,0.162-5.72c2.238-0.229,4.24,0.696,4.705-2.39
			c0.459-3.088,4.477-4.633,8.338-0.158c0,0-4.707-9.025-12.889-5.791c0,0,8.328-6.17,14.277,7.181c0,0,3.781,8.729,4.248,18.603
			C1115.959,820.212,1113.406,813.96,1110.014,815.193L1110.014,815.193z M1127.148,843.896
			c-15.881-14.986-22.986-16.212-22.986-16.212c3.465-0.284,12.162,5.733,13.289,6.526c0.035,0.036,0.068,0.069,0.105,0.106
			c0,0-0.016-0.027-0.041-0.053c0.035,0.014,0.059,0.035,0.059,0.035c-0.037-0.035-0.07-0.068-0.107-0.105
			c-0.785-1.133-6.811-9.822-6.531-13.282C1110.936,820.91,1112.16,828.017,1127.148,843.896L1127.148,843.896z"/>
		<path d="M1042.107,778.586c6.197-4.198,16.781-0.27,21.863,2.056l0.021,0.021c0.004-0.009,0-0.012-0.004-0.016
			c0.004,0.004,0.008,0.007,0.016,0.004l-0.021-0.021c-2.324-5.082-6.254-15.666-2.055-21.863c6.521-9.63,12.582-0.621,17.393-7.768
			c0,0,2.02-5.273-3.266-6.984c-2.553-0.832-10.084-1.714-15.838,3.883c-4.705,4.576-9.344,12.438-3.703,25.276
			c-12.836-5.643-20.699-1.003-25.277,3.704c-5.598,5.754-4.711,13.279-3.887,15.842c1.711,5.285,6.99,3.259,6.99,3.259
			C1041.486,791.169,1032.475,785.112,1042.107,778.586L1042.107,778.586z M1057.277,773.948l0.016,0.016
			c0.004-0.008,0-0.012-0.002-0.015c0.002,0.003,0.006,0.007,0.014,0.003l-0.016-0.016c-1.537-4.857-3.484-14.497,2.158-21.696
			c0,0-6.33,12.169,1.068,24.935c-12.766-7.398-24.928-1.076-24.928-1.076C1042.781,770.463,1052.42,772.411,1057.277,773.948
			L1057.277,773.948z"/>
		<g>
			<path d="M1014.15,856.952c3.32,7.981-0.885,13.518-0.885,13.518c3.207-7.021-2.158-19.419-2.158-19.419s0.746,4.722-3.898,9.687
				c-4.654,4.98-1.449,9.91,1.135,12.704c2.588,2.796-1.025,5.23-1.025,5.23c12.023-1.866,11.877-15.937,8.244-21.82
				c-3.635-5.883-2.602-11.351-2.602-11.351S1010.834,848.974,1014.15,856.952L1014.15,856.952z"/>
			<path d="M1043.402,808.852c0.531,19.758,9.621,13.231,11.816,20.512c2.197,7.273,6.066,3.104,6.066,3.104
				s-4.484,10.439-18.494,8.106s-19.719-23.138-2.838-41.546c0,0-14.43,17.875-5.301,33.406c0,0-8.35-15.854,9.539-38.113
				c0,0-16.943,8.633-20.098,29.335c-3.156,20.693,4.373,22.827-3.602,30.839c0,0,0.668-1.529-1.961-2.797
				c-2.623-1.269-5.514-4.795-4.088-11.549c0,0,0.301,6.109,4.186,7.856c0,0-4.508-3.612-3.057-12.571
				c0,0-5.861,25.044-24.686,28.374c-18.838,3.323-25.041-7.938-25.107-14.607c-0.068-6.667,1.736-8.927-2.418-10.859
				c0,0,11.795-3.762,14.113,3.68c2.324,7.442,0.103,16.589,9.523,16.924c0,0-7.961,2.84-10.846-8.828c0,0-0.736,5.07,3.104,8.148
				c3.846,3.075,16.324,5.835,26.855-7.642c7.996-10.222,10.744-24.025,10.744-24.025s-4.457,1.123-6.748,9.816
				c-2.303,8.692-6.025,13.921-13.102,12.743c-7.078-1.179-6.443,2.614-6.443,2.614s-4.426-3.162-1.447-10.422
				c2.979-7.259,15.461-6.629,20.504-10.777c0,0-3.119,5.172-12.519,6.756c0,0,8.193,2.677,14.846-8.489
				c0,0-11.057,6.826-22.924-0.078c-11.867-6.908-11.639-23.741-0.738-27.484c10.904-3.741,22.617,7.286,13.334,16.144
				c0,0,3.158-5.455-0.314-5.963c-3.479-0.5-2.852,5.354-8.252,3.83c-5.398-1.523-7.197,4.725-3.645,8.789
				c0,0-5.459-3.16-1.754-10.313c3.703-7.151,12.447-3.438,12.447-3.438s-9.047-5.841-13.656,3.116
				c-4.797,9.286,5.453,16.918,15.498,16.015c10.045-0.903,18.434-9.751,24.299-20.583c5.865-10.832,19.158-22.818,38.152-25.23
				C1064.393,783.644,1042.879,789.101,1043.402,808.852L1043.402,808.852z"/>
		</g>
		<g>
			<path d="M1140.174,730.93c7.98,3.319,13.518-0.886,13.518-0.886c-7.021,3.208-19.42-2.158-19.42-2.158s4.721,0.746,9.688-3.898
				c4.981-4.653,9.908-1.448,12.703,1.137c2.795,2.586,5.23-1.026,5.23-1.026c-1.867,12.023-15.936,11.877-21.82,8.243
				c-5.883-3.634-11.35-2.602-11.35-2.602S1132.195,727.614,1140.174,730.93L1140.174,730.93z"/>
			<path d="M1092.072,760.181c19.758,0.531,13.232,9.622,20.514,11.818c7.273,2.197,3.104,6.066,3.104,6.066
				s10.439-4.486,8.105-18.495c-2.332-14.01-23.137-19.72-41.547-2.839c0,0,17.877-14.428,33.406-5.301
				c0,0-15.852-8.348-38.111,9.539c0,0,8.631-16.943,29.334-20.098c20.693-3.154,22.826,4.374,30.84-3.601
				c0,0-1.531,0.667-2.797-1.962c-1.27-2.623-4.797-5.514-11.551-4.088c0,0,6.111,0.301,7.857,4.187c0,0-3.611-4.508-12.572-3.058
				c0,0,25.045-5.86,28.375-24.686c3.322-18.837-7.938-25.039-14.605-25.107c-6.668-0.067-8.928,1.736-10.859-2.418
				c0,0-3.762,11.795,3.68,14.115c7.441,2.322,16.588,0.102,16.922,9.522c0,0,2.842-7.962-8.826-10.847c0,0,5.07-0.736,8.146,3.104
				c3.074,3.846,5.834,16.324-7.643,26.855c-10.221,7.998-24.023,10.744-24.023,10.744s1.123-4.455,9.816-6.748
				c8.691-2.301,13.92-6.023,12.742-13.102c-1.178-7.076,2.615-6.443,2.615-6.443s-3.162-4.426-10.422-1.447
				s-6.629,15.463-10.777,20.505c0,0,5.17-3.12,6.754-12.52c0,0,2.678,8.193-8.488,14.848c0,0,6.826-11.059-0.078-22.924
				c-6.908-11.868-23.742-11.641-27.484-0.74c-3.74,10.904,7.285,22.617,16.145,13.335c0,0-5.455,3.158-5.965-0.315
				c-0.5-3.477,5.355-2.852,3.832-8.25c-1.523-5.4,4.725-7.199,8.789-3.646c0,0-3.16-5.459-10.313-1.754
				c-7.152,3.705-3.439,12.447-3.439,12.447s-5.842-9.045,3.115-13.656c9.287-4.796,16.92,5.453,16.016,15.499
				c-0.904,10.045-9.75,18.435-20.584,24.299c-10.832,5.864-22.818,19.157-25.229,38.151
				C1066.865,781.171,1072.322,759.658,1092.072,760.181L1092.072,760.181z"/>
		</g>
	</g>
	<rect x="223.045" y="65.851" width="743.603" height="3.468"/>
	<rect x="65.788" y="220.192" width="3.469" height="465.539"/>
	<rect x="222.915" y="837.565" width="744.533" height="3.469"/>
	<rect x="1120.637" y="220.502" width="3.469" height="465.54"/>
</g>
<g>
	<g>
	
	</g>
</g>
</svg>